<svg width="1110" height="348" viewBox="0 0 1110 348" fill="none" xmlns="http://www.w3.org/2000/svg">
<rect width="1110" height="348" fill="#342BC2"/>
<mask id="mask0" style="mask-type:alpha" maskUnits="userSpaceOnUse" x="0" y="0" width="1110" height="348">
<rect width="1110" height="348" fill="#342BC2"/>
</mask>
<g mask="url(#mask0)">
<g opacity="0.12">
<path fill-rule="evenodd" clip-rule="evenodd" d="M462.837 164.261C462.729 139.844 419.655 112.385 401.256 98.2287C364.875 70.2292 327.037 44.373 289.549 18.1038C252.062 -8.16542 214.473 -34.3634 178.727 -63.2033C155.516 -81.9243 128.244 -103.009 112.503 -129.741C78.9695 -186.709 184.698 -178.249 212.085 -179.496C281.756 -182.679 361.67 -181.226 426.976 -210.892C465.961 -228.602 481.507 -258.303 473.133 -301.591C470.434 -315.67 462.446 -331.87 469.213 -345.585C476.439 -360.233 493.065 -368.685 506.862 -374.353C557.19 -395.004 615.054 -397.397 668.302 -399.989C725.721 -402.837 783.679 -402.004 840.693 -402.225C864.868 -402.317 890.116 -411.482 913.138 -418.931C943.318 -428.693 973.14 -439.66 1003.07 -450.263C1068.92 -473.534 1136.77 -498.044 1206.43 -503.955C1250.06 -507.658 1297.74 -502.652 1331.63 -470.443C1348.65 -454.272 1357.55 -430.231 1367.39 -408.876C1379.3 -383.076 1390.74 -357.028 1403.42 -331.635C1444.26 -249.851 1502.57 -169.932 1597.21 -165.916C1611.53 -165.311 1625.59 -167.283 1639.84 -167.653C1648.91 -167.881 1656.99 -165.567 1660.36 -155.548C1668.84 -130.418 1642.18 -90.7471 1631.25 -70.8084C1607.32 -27.1641 1580.33 14.522 1555.05 57.2904C1538.33 85.5748 1509.37 124.227 1509.07 158.593C1508.8 189.213 1547.39 211.345 1568.4 226.427C1588.09 240.548 1623.76 260.309 1625.92 289.035C1626.97 302.963 1618.27 314.506 1609.18 323.465C1593.25 339.131 1574.89 350.182 1560.56 368.056C1537.06 397.38 1517.43 437.727 1520.62 477.241C1522.83 504.622 1537.64 522.552 1556.47 539.692C1564.38 546.899 1570.81 551.997 1571.22 563.697C1571.9 582.276 1565 601.936 1559.32 619.162C1539 680.808 1510.14 740.418 1478.03 796.075C1461.98 823.889 1444.65 851.618 1423.37 875.345C1409.44 890.926 1390.65 909.469 1369.4 909.448C1344.79 909.448 1318.75 900.077 1294.83 893.07C1250.16 879.974 1206.03 864.835 1162.07 849.304C1060.41 813.372 959.709 774.529 859.963 732.777C789.705 703.317 717.955 673.815 651.9 634.65C639.018 626.959 626.859 617.991 615.587 607.868C603.543 597.237 588.598 592.48 573.444 588.934C479.388 566.923 376.345 583.821 281.898 594.417C257.925 597.101 233.952 599.8 209.912 601.68C189.245 603.297 164.504 607.932 144.417 600.968C104.838 587.26 139.438 536.737 154.066 516.15C205.567 443.666 272.013 382.341 333.602 319.733C362.884 289.918 392.39 260.181 420.08 228.677C434.499 212.299 462.932 185.667 462.837 164.261Z" stroke="white"/>
<path fill-rule="evenodd" clip-rule="evenodd" d="M480.585 160.145C464.799 134.307 437.104 115.21 414.114 97.2376C381.03 71.3643 346.906 46.9289 313.296 21.7888C281.515 -1.98466 249.666 -26.0286 220.235 -53.0264C202.289 -69.4899 179.772 -89.1778 171.271 -113.528C152.832 -166.306 252.03 -158.299 276.519 -159.68C337.4 -163.096 406.423 -163.879 462.747 -191.667C497.917 -209.02 512.366 -237.798 504.865 -277.75C502.272 -291.573 497.6 -303.374 503.514 -317.126C510.354 -333.041 526.086 -342.963 540.508 -349.967C585.684 -371.911 639.084 -376.573 688.055 -380.453C738.646 -384.46 791.357 -387.286 840.322 -384.353C859.902 -383.186 882.439 -389.813 901.817 -394.895C931.633 -402.724 961.145 -411.757 990.813 -420.156C1051.11 -437.239 1112.97 -453.695 1175.69 -455.567C1220.98 -456.919 1268.19 -449.588 1305.87 -421.252C1344.05 -392.517 1360.99 -347.974 1382.16 -305.63C1418.73 -232.424 1468.12 -143.415 1552.72 -127.948C1565.55 -125.6 1577.88 -126.874 1590.69 -126.297C1597.28 -126.005 1604.78 -125.08 1608.12 -118.226C1616.8 -100.431 1593.03 -67.8955 1585.03 -54.2649C1562.92 -16.5975 1538.07 19.2264 1514.9 56.1678C1496.5 85.5003 1473.18 118.093 1466.07 152.863C1457.43 195.058 1513.86 225.081 1533.7 254.79C1568.1 306.309 1502.92 335.663 1470.79 360.226C1433.89 388.427 1403.44 439.875 1436.51 483.507C1449.17 500.191 1464.74 510.134 1470.39 531.908C1479.23 565.959 1472.54 604.872 1465.37 638.533C1454.57 689.133 1437.47 739.185 1414.23 784.917C1397.58 817.659 1369.96 869 1329.51 865.149C1302.28 862.58 1274.6 853.191 1248.08 844.892C1208.38 832.471 1169.18 818.314 1130.19 803.609C1040.18 769.756 951.166 732.431 863.899 691.375C804.355 663.352 638.26 548.834 625.763 544.748C588.499 532.577 546.132 534.719 507.714 536.606C456.61 539.111 405.762 545.602 354.954 551.617C330.769 554.464 306.463 557.945 282.15 559.347C264.845 560.343 242.118 561.198 226.96 550.585C197.374 529.879 230.336 482.503 243.968 462.459C285.728 401.011 338.554 347.799 388.085 293.39C412.392 266.677 437.07 240.007 459.135 211.151C468.034 199.499 490.342 176.103 480.585 160.145Z" stroke="white"/>
<path fill-rule="evenodd" clip-rule="evenodd" d="M502.424 146.893C459.313 95.189 399.811 56.7349 348.458 13.5533C322.683 -8.12645 296.747 -30.3971 274.516 -56.2207C262.952 -69.6486 248.512 -86.6294 246.284 -105.347C240.33 -155.421 329.738 -148.65 356.498 -150.551C408.236 -154.239 466.685 -157.037 513.623 -182.59C542.301 -198.211 556.424 -223.849 551.063 -257.547C548.687 -272.499 544.988 -285.201 551.063 -299.882C557.22 -314.755 570.047 -325.249 583.035 -333.117C620.361 -355.744 666.746 -362.977 708.769 -368.367C758.068 -374.645 807.736 -377.096 857.375 -375.7C900.85 -374.497 944.116 -388.032 986.566 -396.953C1042.8 -408.765 1100.05 -419.081 1157.6 -417.522C1203.04 -416.283 1248.85 -406.551 1287.7 -380.684C1327.18 -354.341 1350.91 -314.912 1372.31 -272.364C1404.66 -208.043 1444.98 -121.851 1515.95 -97.4229C1526.27 -93.863 1535.89 -93.4715 1546.54 -92.852C1551.71 -92.553 1558.39 -92.4604 1560.95 -86.7717C1567.12 -73.0732 1544.31 -46.5164 1537.95 -37.2607C1517.63 -7.71348 1495.6 20.5023 1474.77 49.6579C1455.33 76.8769 1434.15 105.242 1422.07 137.139C1402.85 187.939 1464.3 217.642 1462.58 266.05C1461.51 296.103 1434.23 317.654 1412.62 332.563C1386.02 350.897 1347.73 362.95 1334.41 396.406C1324.5 421.326 1340.06 435.829 1352.04 454.739C1372.35 486.778 1373.73 530.209 1371.62 567.296C1368.77 617.412 1357.64 668.269 1338.69 714.334C1330.1 735.216 1319.58 756.939 1304.1 773.158C1289.59 788.359 1275.86 792.253 1256.47 789.142C1197.12 779.601 1137.19 753.009 1080.27 729.257C1008.76 699.411 938.236 666.46 869.817 629.388C823.162 604.105 775.454 577.356 734.504 542.426C723.83 533.32 712.901 523.424 705.097 511.413C699.197 502.385 696.692 494.93 686.748 489.775C657.274 474.504 616.276 478.498 584.696 480.085C534.2 482.613 483.947 489.341 433.761 495.4C404.476 498.96 349.309 510.159 325.924 483.296C305.739 460.1 330.096 420.55 342.537 400.116C374.01 348.44 414.494 303.087 452.056 256.388C469.271 234.986 487.16 213.42 501.377 189.626C505.009 183.56 510.829 175.522 511.828 168.153C512.948 159.709 507.716 153.265 502.424 146.893Z" stroke="white"/>
<path fill-rule="evenodd" clip-rule="evenodd" d="M506.13 158.929C466.294 113.213 418.302 75.6558 375.536 32.8756C356.361 13.6943 336.997 -6.42755 322.386 -29.827C314.527 -42.4102 306.181 -58.2497 308.349 -73.8897C314.567 -118.779 388.101 -114.725 417.809 -117.354C461.953 -121.216 512.666 -125.106 551.698 -149.311C577.267 -165.165 586.855 -188.578 582.081 -218.775C576.957 -251.167 588.415 -274.68 614.49 -292.75C647.182 -315.387 688.45 -324.614 726.408 -331.169C772.141 -339.029 818.453 -342.514 864.78 -341.579C909.835 -340.667 953.486 -348.633 998.244 -353.814C1057.59 -360.675 1118.83 -364.06 1177.5 -349.994C1228.59 -337.746 1274.73 -310.755 1309.32 -269.016C1345.45 -225.452 1363.34 -170.565 1392.67 -122.37C1410.97 -92.3085 1436.48 -52.5424 1470.68 -40.8569C1482.08 -36.9594 1502.86 -42.2178 1493.75 -23.0437C1488.55 -12.0779 1478.81 -2.45873 1471.11 6.50487C1458.67 20.9906 1445.82 35.0773 1433.18 49.3635C1406.22 79.8169 1377.36 110.919 1357.16 146.98C1331.7 192.382 1369.54 227.325 1364.93 273.361C1362.45 298.136 1346.12 317.908 1328.85 333.441C1317.68 343.502 1305.45 352.217 1292.97 360.346C1279.93 368.84 1264.5 375.31 1253.13 386.29C1236.93 401.915 1243.96 420.413 1247 440.613C1252.35 476.112 1253.52 512.173 1250.5 547.977C1246.8 591.861 1238.12 637 1219.85 676.88C1212.74 692.406 1203.73 708.865 1190.35 719.276C1176.98 729.686 1163.14 728.973 1147.82 725.838C1102.36 716.575 1056.99 695.021 1013.87 674.593C959.893 649.02 906.979 620.441 856.449 587.928C821.569 565.483 786.574 541.236 757.393 510.804C748.906 501.947 740.83 492.463 734.301 481.875C729.818 474.615 727.414 465.245 720.919 459.787C700.596 442.75 659.795 447.838 635.961 448.828C588.394 450.802 541.577 460.186 494.071 462.466C468.144 463.713 427.539 466.848 408.499 443.556C390.593 421.66 406.811 387.173 417.512 366.075C438.544 324.592 466.801 287.633 492.127 249.071C502.538 233.203 513.949 216.601 520.694 198.481C526.689 182.336 516.339 170.65 506.13 158.929Z" stroke="white"/>
<path fill-rule="evenodd" clip-rule="evenodd" d="M515.928 159.677C484.22 119.449 445.995 83.7383 414.058 42.8551C395.363 18.9129 363.17 -21.3371 377.627 -55.091C393.488 -92.1819 448.775 -93.1922 480.732 -96.1805C518.768 -99.738 563.436 -104.598 595.987 -127.757C606.282 -135.079 615.053 -144.769 618.77 -157.534C622.75 -171.195 618.399 -183.148 617.832 -196.823C616.645 -225.511 632.877 -248.543 654.357 -264.359C684.716 -286.722 722.678 -297.295 758.535 -304.666C799.159 -312.98 840.457 -317.079 881.839 -316.904C921.386 -316.762 960.515 -317.687 1000.1 -318.754C1051.87 -320.177 1104.37 -317.879 1154.6 -303.371C1204.07 -289.07 1249.04 -262.268 1284.38 -222.843C1318.84 -184.372 1342.1 -137.348 1362.46 -89.4497C1374.02 -62.263 1393.55 -21.636 1421.11 -7.90388C1433.37 -1.79203 1445.4 -2.21181 1432.36 13.6833C1415.95 33.698 1393.83 49.7567 1374.82 66.8755C1347.39 91.5791 1319.28 116.766 1296.26 146.137C1281.56 164.893 1275.01 183.093 1276.02 207.377C1276.81 225.876 1280.35 244.183 1278.56 262.753C1274.36 306.34 1241.82 336.231 1213.05 364.065C1194.55 381.966 1177.65 395.62 1168.12 421.085C1156.86 451.182 1152.13 483.925 1144.6 515.175C1136.33 549.491 1126.77 585.187 1108.72 615.412C1092.65 642.321 1073.11 654.388 1043.85 647.138C998.227 635.839 953.256 608.005 912.751 582.256C871.523 556.058 831.005 526.602 796.841 490.592C778.396 471.147 765.807 448.314 749.427 427.425C728.824 401.198 682.213 411.131 654.512 413.351C608.529 417.037 463.839 444.615 477.19 355.292C482.763 318.009 504.709 283.601 520.758 250.701C527.41 237.047 537.038 220.661 538.542 205.015C540.181 187.974 525.461 171.787 515.928 159.677Z" stroke="white"/>
<path fill-rule="evenodd" clip-rule="evenodd" d="M532.669 163.093C508.439 126.638 479.44 92.197 458.649 52.823C445.161 27.3236 431.916 -6.74695 449.315 -33.7271C468.953 -64.1741 512.256 -71.2716 544.073 -75.1513C576.855 -79.1449 615.989 -82.505 642.783 -105.591C651.307 -112.945 658.334 -122.861 659.642 -134.736C660.903 -146.126 657.343 -157.516 658.523 -169.112C661.166 -195.153 676.131 -216.609 695.425 -232.17C752.498 -278.207 837.444 -288.444 906.305 -289.647C940.773 -290.245 976.245 -287.106 1010.94 -284.856C1055.95 -281.938 1101.03 -275.673 1143.96 -260.574C1235.24 -228.483 1296.42 -157.309 1339.15 -68.7444C1352.6 -40.8672 1362.89 -10.705 1383.96 11.6978C1394.83 23.2658 1392.45 31.5734 1381.35 42.1235C1363.98 58.6106 1342.8 71.2108 1323.53 84.9714C1296.11 104.541 1268.11 124.402 1243.87 147.844C1227.16 164.004 1215.29 179.573 1211.69 203.805C1209.12 221.082 1209.72 238.687 1208.18 256.071C1205.24 289.095 1195.17 321.87 1177.35 349.263C1163.18 370.975 1146.32 390.709 1128.9 409.524C1106.25 434.019 1087.09 458.907 1069.88 487.98C1047.08 526.464 1015.03 597.452 961.308 578.666C902.056 557.936 846.521 505.264 808.506 454.23C795.74 437.095 785.26 416.08 768.043 403.444C742.268 384.558 716.115 385.22 685.458 385.298C639.559 385.405 539.683 395.92 538.604 323.365C538.179 294.619 549.967 267.44 555.612 239.791C561.978 208.824 549.219 187.937 532.669 163.093Z" stroke="white"/>
<path fill-rule="evenodd" clip-rule="evenodd" d="M550.717 166.343C526.75 118.83 473.005 40.7559 513.882 -12.0783C535.474 -40 573.665 -50.4929 605.703 -56.7459C631.485 -61.8038 662.578 -63.7032 682.058 -85.1442C696.376 -100.908 690.02 -123.85 695.506 -143.584C702.314 -168.048 717.942 -188.067 737.145 -203.112C790.809 -245.162 865.423 -258.066 929.977 -260.812C997.021 -263.658 1070.89 -250.348 1133.98 -224.745C1212.65 -192.812 1271.58 -132.344 1312.79 -55.7713C1320.4 -41.6362 1327.31 -27.1312 1334.61 -12.8253C1339.51 -3.22878 1346.79 6.05473 1350.65 16.1492C1357.09 32.9805 1349.51 46.7386 1337.35 57.7081C1319.86 73.5007 1298.37 84.7405 1278.43 96.5921C1251.17 112.812 1223.29 128.739 1197.93 147.769C1180.89 160.574 1163.04 174.367 1156.94 196.584C1152.78 211.736 1151.92 227.785 1152.07 243.478C1152.39 277.126 1150.72 304.336 1135.83 335.153C1111.34 385.747 1073.67 431.24 1033.88 469.092C1002.66 498.799 953.243 544.947 907.744 525.085C866.921 507.3 843.042 464.731 816.146 430.315C803.069 413.583 788.38 398.303 771.119 386.401C749.358 371.398 728.873 365.103 703.09 362.648C659.697 358.515 594.266 357.441 580.852 302.522C575.899 282.255 578.726 261.262 576.128 240.732C572.734 213.586 562.808 190.309 550.717 166.343Z" stroke="white"/>
<path fill-rule="evenodd" clip-rule="evenodd" d="M575.638 168.103C558.571 116.115 536.15 50.5951 577.371 4.38938C597.338 -17.9942 625.423 -30.5071 652.605 -39.8579C672.073 -46.5594 702.983 -48.5321 714.919 -69.1352C723.685 -84.2973 724.899 -105.214 732.828 -121.458C743.725 -143.792 760.233 -162.188 779.599 -176.588C830.052 -214.112 895.764 -228.612 955.69 -232.764C1085.9 -241.773 1218.39 -170.021 1288.07 -51.9719C1308.84 -16.7835 1335.66 20.6696 1302.09 56.62C1265.43 95.8393 1210.21 114.213 1166.46 142.081C1149.75 152.72 1128.44 165.511 1119.12 184.775C1113.51 196.355 1113.12 210.883 1112.87 223.631C1112.19 256.099 1109.64 285.298 1097.26 315.594C1078.15 362.412 1047.68 405.605 1013.15 440.986C983.034 471.837 940.087 508.094 896.35 485.853C862.817 468.761 841.549 432.483 815.493 405.741C786.497 375.958 750.637 355.889 711.257 346.082C672.949 336.567 630.932 330.151 610.743 289.728C603.818 275.862 596.583 257.908 593.987 242.561C589.796 217.256 583.659 192.355 575.638 168.103Z" stroke="white"/>
<path fill-rule="evenodd" clip-rule="evenodd" d="M603.427 168.469C595.531 115.972 594.654 61.2318 631.338 19.8563C648.459 0.553423 670.101 -13.1601 691.986 -25.5849C708.088 -34.7272 724.716 -42.4384 736.742 -57.4265C747.884 -71.3038 756.353 -87.4168 767.11 -101.657C781.299 -120.529 798.278 -136.865 817.392 -150.039C865.306 -182.998 923.592 -198.414 979.355 -203.761C1006.35 -206.36 1035.63 -207.713 1062.44 -200.628C1088.33 -193.793 1113.94 -182.984 1137.75 -170.381C1188.36 -143.617 1232.22 -104.42 1264.02 -54.8632C1285.83 -20.8713 1297.62 12.1807 1269.38 46.6639C1237.55 85.5331 1187.64 106.979 1146.5 132.206C1118.28 149.508 1086.66 166.469 1081.39 203.237C1077.19 232.494 1073.79 260.263 1062.93 287.918C1046.77 328.709 1023.01 365.661 993.054 396.579C965.662 424.747 931.009 448.65 891.827 433.605C860.785 421.664 836.7 394.913 809.578 375.788C779.351 354.428 746.142 342.651 711.172 333.181C679.745 324.637 650.153 311.507 629.84 283.632C625.683 277.935 621.317 271.734 618.111 265.361C614.022 257.23 614.339 249.17 613.536 240.056C611.444 216.004 606.997 192.229 603.427 168.469Z" stroke="white"/>
<path fill-rule="evenodd" clip-rule="evenodd" d="M634.066 164.175C634.741 114.311 646.107 67.1845 677.236 28.324C690.545 11.7001 706.436 -1.99272 721.08 -17.226C732.871 -29.5067 744.014 -40.9174 757.572 -51.0372C789.734 -74.9997 815.872 -106.008 850.05 -127.346C895.675 -155.873 947.938 -171.641 999.795 -177.945C1025.12 -181.026 1051.28 -182.103 1076.89 -178.623C1098.9 -175.635 1119.97 -165.144 1139.52 -154.411C1177.83 -133.387 1215.03 -103.505 1239.91 -65.7C1294.75 17.6479 1186.62 78.2457 1131.12 113.733C1105.6 130.057 1066.59 148.963 1056.14 181.298C1048.66 204.398 1044.11 227.89 1034.49 250.276C1008.63 310.396 956.147 381.106 886.205 371.693C856.276 367.67 828.998 351.332 801.059 340.363C772.291 329.067 742.598 322.769 712.696 315.859C684.75 309.405 662.477 300.219 644.427 275.593C635.8 263.833 636.562 249.755 635.793 235.328C634.538 211.629 633.763 187.795 634.066 164.175Z" stroke="white"/>
<path fill-rule="evenodd" clip-rule="evenodd" d="M661.966 157.79C673.203 82.5242 714.935 0.354843 776.297 -43.3559C848.478 -94.774 926.675 -138.072 1012.91 -150.519C1052.9 -156.291 1096.7 -159.13 1134.42 -140.257C1163.14 -125.902 1196.49 -104.446 1212.29 -74.2709C1250.95 -0.46361 1164.96 58.2919 1115.97 92.4378C1089.59 110.82 1056.02 128.733 1036.14 155.577C1024.6 171.141 1018.71 191.73 1009.4 208.824C981.183 260.627 934.731 302.409 876.866 309.881C850.112 313.333 823.161 309.063 796.61 305.668C769.43 302.195 741.912 300.309 714.901 295.463C693.339 291.591 667.929 285.037 659.987 260.691C649.973 230.011 657.381 188.527 661.966 157.79Z" stroke="white"/>
<path fill-rule="evenodd" clip-rule="evenodd" d="M689.325 145.699C705.713 74.9363 740.415 5.9113 798.752 -36.3328C829.689 -58.7333 865.601 -74.1965 900.081 -89.4744C939.164 -106.789 979.998 -120.23 1021.7 -126.897C1073.63 -135.201 1157.73 -142.687 1184.87 -80.2578C1211.79 -18.2913 1143.75 36.5527 1103.51 67.8066C1077.71 87.8282 1050.1 106.204 1025.45 128.092C1012.08 139.958 1001.79 153.669 990.477 167.587C959.216 206.149 914.65 236.676 869.225 252.973C825.2 268.77 770.736 275.765 724.264 270.544C704.212 268.3 689.879 260.729 683.815 239.205C675.412 209.283 682.551 174.93 689.325 145.699Z" stroke="white"/>
<path fill-rule="evenodd" clip-rule="evenodd" d="M716.51 126.641C732.79 64.3373 767.905 7.43089 819.124 -29.9629C876.539 -71.882 950.469 -95.1751 1018.42 -107.02C1054.54 -113.312 1132.81 -130.37 1151.22 -81.5496C1169.63 -32.7291 1116.41 15.382 1085.78 41.8669C1048.6 73.9623 1008.52 104.951 968.482 133.748C933.697 158.786 896.58 184.385 858.904 203.72C837.654 214.689 815.519 223.645 792.76 230.482C775.907 235.503 754.476 242.993 736.808 239.255C692.242 229.815 708.724 156.432 716.51 126.641Z" stroke="white"/>
<path fill-rule="evenodd" clip-rule="evenodd" d="M750.067 107.984C785.787 -9.84052 898.959 -67.7887 1007.93 -87.987C1033.25 -92.6755 1104.23 -109.58 1118.38 -73.587C1132.1 -38.6901 1088.48 2.69537 1068.06 22.3031C1004.78 83.0615 926.598 128.111 852.516 172.741C829.393 186.671 787.688 216.901 759.004 202.956C727.86 187.788 742.667 132.415 750.067 107.984Z" stroke="white"/>
<path fill-rule="evenodd" clip-rule="evenodd" d="M786.656 85.3043C817.72 -1.46466 908.072 -51.2299 991.141 -67.6357C1011.49 -71.6499 1063.16 -84.1482 1078.57 -59.9346C1092.83 -37.5359 1058.8 -5.08032 1046.07 7.81651C1017.72 36.5355 984.129 60.1939 950.942 82.9342C920.257 103.973 889.24 125.539 856.952 143.333C839.946 152.699 808.05 172.685 788.725 158.223C767.919 142.664 779.759 104.571 786.656 85.3043Z" stroke="white"/>
<path fill-rule="evenodd" clip-rule="evenodd" d="M826.975 59.9531C850.651 3.28949 914.063 -33.5059 970 -45.7331C985.051 -49.016 1017.58 -57.5329 1030.28 -42.4003C1041.97 -28.464 1023.13 -8.03326 1014.77 1.40237C977.712 43.2254 923.446 80.5833 873.725 103.528C861.224 109.296 838.752 120.619 825.893 108.976C812.702 97.0192 821.536 72.9636 826.975 59.9531Z" stroke="white"/>
<path fill-rule="evenodd" clip-rule="evenodd" d="M869.747 36.1532C883.089 8.01631 917.958 -13.2121 946.842 -19.9696C967.17 -24.7214 991.604 -20.6166 973.889 3.87557C956.29 28.1808 923.635 50.3798 895.957 60.2213C874.841 67.7263 858.291 60.3219 869.747 36.1532Z" stroke="white"/>
<path fill-rule="evenodd" clip-rule="evenodd" d="M-212.146 231.031C-213.002 175.442 -240.997 117.67 -227.171 61.0286C-215.818 14.5093 -158.663 10.6255 -124.375 -10.4505C-97.1285 -27.1946 -81.6657 -56.856 -66.9306 -85.3153C-53.6912 -110.865 -41.7993 -137.184 -27.8525 -162.314C-18.8241 -178.56 -3.32085 -210.462 16.2586 -211.038C35.0026 -211.593 52.1902 -186.733 63.0782 -172.038C77.2743 -152.882 89.8602 -132.461 103.645 -112.999C126.877 -80.1725 154.75 -55.8743 186.666 -32.8778C222.986 -6.71131 259.906 18.5613 297.425 42.9401C325.05 60.9433 352.862 78.8112 379.415 98.5926C396.071 111.005 432.831 134.293 433 157.176C433.08 168.094 423.277 180.186 416.668 188.914C405.483 203.688 392.736 217.196 379.948 230.412C356.13 255.03 331.302 278.531 306.744 302.318C274.868 333.188 244.421 363.554 216.399 398.6C187.427 434.876 159.749 472.348 131.505 509.307C112.377 534.345 93.2694 562.463 65.6789 577.827C31.1218 597.033 2.75645 576.782 -32.1915 576.547C-62.2547 576.341 -60.038 502.82 -63.8582 482.377C-67.6919 461.685 -76.1409 442.423 -79.4153 421.682C-83.4983 395.79 -83.5522 369.301 -84.5562 343.132C-85.7757 311.123 -86.2608 280.651 -118.675 268.445C-137.123 261.51 -157.08 260.052 -176.174 255.898C-188.544 253.202 -211.877 248.593 -212.146 231.031Z" stroke="white"/>
<path fill-rule="evenodd" clip-rule="evenodd" d="M-197.366 221.144C-200.517 174.547 -219.134 114.907 -201.529 66.8067C-186.488 25.7023 -139.449 20.3737 -107.775 -1.21854C-81.6275 -19.0281 -69.9875 -48.1716 -56.917 -76.8022C-46.4309 -99.7694 -36.262 -122.957 -24.3588 -145.191C-15.5867 -161.576 -2.19225 -189.237 16.0471 -192.628C32.4443 -195.677 50.029 -171.257 59.2331 -158.833C72.6612 -140.696 84.146 -120.998 96.0086 -101.714C116.853 -67.8405 138.196 -37.379 168.703 -12.4956C199.345 12.4948 232.868 31.1806 266.749 50.6286C293.254 65.845 319.624 81.5032 344.807 99.0705C363.566 112.15 390.537 128.891 399.12 152.214C405.915 170.665 371.454 201.283 361.292 212.09C340.374 234.309 318.207 255.167 296 275.898C268.928 301.159 240.992 323.25 217.085 352.066C174.324 403.585 138.581 467.742 83.5589 506.033C50.3732 529.128 13.4424 535.034 -23.4681 531.579C-38.0839 530.211 -41.5927 508.433 -43.4349 495.732C-46.4984 474.631 -46.883 453.167 -49.238 431.981C-51.4445 412.148 -56.3435 393.305 -60.2909 373.857C-64.2856 354.153 -65.4058 333.964 -68.3478 314.124C-70.1697 301.807 -71.9714 287.474 -79.9406 277.572C-88.1864 267.321 -101.79 263.025 -113.68 259.762C-136.008 253.693 -195.139 254.028 -197.366 221.144Z" stroke="white"/>
<path fill-rule="evenodd" clip-rule="evenodd" d="M-178.344 201.639C-183.644 158.866 -191.063 105.593 -169.473 66.1855C-151.825 33.9639 -114.187 27.013 -87.3043 6.01809C-64.9444 -11.4409 -56.4986 -39.2088 -45.3997 -65.0132C-36.2923 -86.1788 -27.1378 -107.437 -16.0996 -127.578C-7.72812 -142.853 3.06027 -163.563 19.6817 -168.892C33.8929 -173.445 49.9472 -153.048 57.8258 -142.896C71.2404 -125.593 82.1773 -106.206 93.0399 -87.0753C110.809 -55.7714 127.16 -22.3332 152.45 3.12959C177.025 27.8383 206.217 42.423 235.956 58.822C258.734 71.3862 281.371 84.4342 302.833 99.4174C319.312 110.914 339.735 124.539 348.322 143.67C355.749 160.168 336.683 179.697 327.157 191.337C311.427 210.546 293.969 228.169 276.753 245.862C258.174 264.951 237.596 282.559 219.618 302.117C181.811 343.274 151.606 388.843 105.01 420.374C74.832 440.8 34.2237 459.355 -1.44952 456.018C-27.104 453.613 -25.4162 393.695 -27.8804 374.55C-31.9311 343.246 -39.7557 310.355 -52.1846 281.52C-62.8582 256.812 -88.2224 249.192 -111.554 243.65C-126.171 240.171 -141.489 238.293 -155.626 232.914C-171.991 226.682 -176.123 219.567 -178.344 201.639Z" stroke="white"/>
<path fill-rule="evenodd" clip-rule="evenodd" d="M-160.6 181.589C-163.756 145.427 -163.046 102.665 -142.607 71.3837C-124.694 43.984 -92.8016 36.7701 -70.1187 15.1857C-52.4156 -1.65376 -45.4627 -29.1105 -35.9422 -51.38C-24.3069 -78.6084 -8.00243 -128.898 21.3496 -139.145C48.6542 -148.67 77.2089 -87.8202 87.0943 -69.675C102.743 -40.9552 115.831 -9.45983 134.812 17.0623C151.156 39.8954 173.056 52.5178 196.299 66.0821C225.935 83.4067 270.929 103.949 286.774 137.714C298.585 162.873 260.179 200.277 247.064 217.708C233.347 235.918 223.016 257.502 208.86 275.069C186.522 302.79 150.325 325.109 120.44 342.142C91.3849 358.71 53.6543 377.048 20.6941 375.956C-0.968498 375.242 -5.0902 339.937 -9.71193 322.691C-16.3337 298.174 -25.1379 276.204 -44.0505 259.529C-63.3009 242.554 -85.9906 234.555 -109.843 227.555C-122.086 223.987 -136.053 221.205 -147.005 213.998C-159.107 206.156 -159.384 195.489 -160.6 181.589Z" stroke="white"/>
<path fill-rule="evenodd" clip-rule="evenodd" d="M-138.981 160.744C-138.806 129.503 -132.038 96.188 -111.967 72.0896C-95.251 52.0171 -69.0856 45.3074 -53.0832 24.7876C-40.4079 8.54212 -33.9558 -14.264 -25.4697 -33.1295C-15.0911 -56.248 -0.415523 -96.6344 25.393 -104.658C50.5819 -112.468 72.8613 -67.9847 82.5193 -50.3831C96.6627 -24.5736 108.112 2.78376 122.384 28.5223C133.564 48.7155 147.236 61.7303 165.441 74.7451C186.811 90.032 216.627 106.966 228.042 132.257C236.273 150.569 216.35 179.829 209.117 195.961C204.268 206.796 199.829 217.802 197.391 229.545C195.492 238.691 195.304 247.154 189.801 255.007C175.947 274.76 145.572 277.337 124.963 283.848C97.5922 292.489 68.5508 302.309 39.9069 304.184C22.3016 305.355 13.3172 288.236 3.26854 276.194C-8.60526 261.958 -25.4158 251.72 -40.0981 240.977C-59.4747 226.776 -80.562 217.944 -102.377 208.898C-112.216 204.815 -123.774 200.811 -131.398 192.695C-139.359 184.281 -139.042 172.019 -138.981 160.744Z" stroke="white"/>
<path fill-rule="evenodd" clip-rule="evenodd" d="M-116.275 142.198C-112.796 115.96 -101.955 90.882 -83.6444 72.3335C-69.6079 58.0929 -50.9666 50.0753 -39.701 32.9652C-29.2039 17.0157 -21.8889 -1.11982 -13.2189 -18.173C-4.04322 -36.2017 9.58883 -66.3349 30.7516 -71.2408C53.5593 -76.5241 71.1286 -46.1274 80.8571 -29.2807C93.1475 -7.99091 102.485 14.9152 113.474 36.9383C121.753 53.3532 132.313 68.3657 144.804 81.476C157.903 95.2966 175.668 108.533 182.295 127.537C188.154 144.37 177.192 164.734 175.257 181.801C173.187 200.037 176.814 219.19 165.339 234.848C141.676 267.139 82.2864 261.15 48.3344 261.841C14.834 262.553 -12.0998 242.794 -39.2088 223.997C-57.1152 211.586 -75.7632 201.076 -94.1213 189.513C-112.837 177.714 -119.336 165.289 -116.275 142.198Z" stroke="white"/>
<path fill-rule="evenodd" clip-rule="evenodd" d="M-95.1787 127.181C-84.8911 89.1696 -52.7602 68.9664 -29.7902 40.2401C-10.996 16.7232 3.09628 -31.9782 34.7483 -38.4204C70.6839 -45.732 92.1968 18.797 104.69 43.6964C118.553 71.311 143.243 93.7732 153.511 123.005C158.907 138.348 154.273 152.665 151.399 168.001C148.249 184.841 145.881 202.058 135.007 215.612C113.602 242.286 71.797 242.101 41.6899 242.835C10.5236 243.597 -17.0471 225.318 -41.879 207.075C-68.2152 187.755 -105.716 166.163 -95.1787 127.181Z" stroke="white"/>
<path fill-rule="evenodd" clip-rule="evenodd" d="M-77.9481 116.873C-66.3559 89.7903 -41.996 67.7731 -22.2296 46.9885C-5.73142 29.6609 12.017 -5.22097 37.1719 -7.70747C66.7367 -10.6403 84.655 26.6077 96.2879 49.4466C107.737 71.8889 124.236 95.585 130.575 120.216C137.187 145.875 119.581 180.431 102.791 198.587C84.0638 218.833 53.4254 226.314 27.1357 225.506C-0.390583 224.685 -25.6474 207.952 -46.4943 190.596C-68.7817 172.043 -91.4293 148.312 -77.9481 116.873Z" stroke="white"/>
<path fill-rule="evenodd" clip-rule="evenodd" d="M-61.9598 111.774C-50.8869 89.2484 -31.6928 70.1935 -13.9952 53.1967C-0.337643 40.0747 19.8154 17.7623 39.5195 17.2159C61.1961 16.6127 79.5671 35.3411 88.1847 54.538C96.6798 73.4722 105.631 97.211 106.903 117.983C109.664 163.218 53.4423 213.89 11.225 209.766C-28.8022 205.856 -84.0377 156.654 -61.9598 111.774Z" stroke="white"/>
<path fill-rule="evenodd" clip-rule="evenodd" d="M-47.1736 109.29C-31.8979 79.9412 5.20716 38.1008 39.5589 37.1072C78.9889 35.9716 88.8872 82.5319 83.7477 116.274C78.5266 150.711 33.0665 200.558 -3.18192 193.822C-38.5602 187.25 -65.2774 144.097 -47.1736 109.29Z" stroke="white"/>
<path fill-rule="evenodd" clip-rule="evenodd" d="M-31.5616 104.544C-18.6281 79.9711 8.97088 49.2778 37.7561 48.3488C72.0543 47.2496 71.4073 86.5594 63.6297 111.026C55.5421 136.429 19.9229 179.817 -10.1092 172.966C-39.3122 166.278 -43.9559 128.096 -31.5616 104.544Z" stroke="white"/>
<path fill-rule="evenodd" clip-rule="evenodd" d="M-17.9639 101.715C-9.42689 84.1807 11.9392 62.0196 32.2509 61.3105C57.0777 60.4582 52.2516 91.6369 45.837 106.686C38.2126 124.592 12.6557 155.706 -8.7915 150.664C-29.9075 145.7 -25.007 116.162 -17.9639 101.715Z" stroke="white"/>
</g>
</g>
</svg>
